<svg width="52" height="46" viewBox="0 0 52 46" fill="none" xmlns="http://www.w3.org/2000/svg">
<path d="M20.9444 21.3109C23.8153 19.9453 25.3139 17.8789 25.3139 14.6625C25.3139 8.31954 20.5653 6.77423 15.0854 6.77423H0V38.6149H15.5097C21.3236 38.6149 26.7854 35.8387 26.7854 29.3699C26.7854 25.3719 24.8806 22.416 20.9444 21.3109ZM7.03264 12.2098H13.6319C16.1687 12.2098 18.4528 12.9195 18.4528 15.8484C18.4528 18.5527 16.6743 19.6399 14.1646 19.6399H7.03264V12.2098ZM14.5528 33.2063H7.03264V24.4375H14.6972C17.7938 24.4375 19.7528 25.7223 19.7528 28.9836C19.7528 32.2 17.4146 33.2063 14.5528 33.2063ZM46.9174 11.5809H33.9444V8.44532H46.9174V11.5809ZM52 27.4203C52 20.6012 47.9917 14.9141 40.7243 14.9141C33.6646 14.9141 28.8708 20.1969 28.8708 27.1149C28.8708 34.2934 33.4118 39.2168 40.7243 39.2168C46.2583 39.2168 49.8424 36.7371 51.5667 31.4633H45.9514C45.3465 33.4309 42.8549 34.4731 40.9229 34.4731C37.1944 34.4731 35.2354 32.2988 35.2354 28.6063H51.9458C51.9729 28.2289 52 27.8246 52 27.4203ZM35.2444 24.6172C35.4521 21.5895 37.4743 19.6938 40.5257 19.6938C43.7215 19.6938 45.3285 21.5625 45.5993 24.6172H35.2444Z" fill="white"/>
</svg>
