<svg width="148" height="148" viewBox="0 0 148 148" fill="none" xmlns="http://www.w3.org/2000/svg">
<rect width="148" height="148" fill="#C4BBF0"/>
<path fill-rule="evenodd" clip-rule="evenodd" d="M0 142.783L10.471 132.312L15.688 137.529L5.217 148H0V142.783ZM0 5.18L10.471 15.651L15.688 10.434L5.217 0H0V5.217V5.18ZM142.783 148L132.312 137.529L137.529 132.312L148 142.783V148H142.783ZM148 5.217L137.529 15.688L132.312 10.471L142.783 0H148V5.217ZM74 68.82L84.471 58.349L89.688 63.566L79.217 74L89.688 84.471L84.471 89.688L74 79.217L63.529 89.688L58.312 84.471L68.783 74L58.312 63.529L63.529 58.312L74 68.783V68.82Z" fill="#4F3B78"/>
</svg>
