<svg width="188" height="170" viewBox="0 0 188 170" fill="none" xmlns="http://www.w3.org/2000/svg">
<g filter="url(#filter0_d)">
<path d="M0.499967 62.5L89.284 0.5H90H90.716L179.5 62.5V160.675L179 161.5H178H2L1 161L0.5 160C0.695262 121.143 0.304705 101.357 0.499967 62.5Z" fill="#C4C4C4"/>
<path d="M178.421 61.9521C178.356 61.9521 178.294 61.9323 178.241 61.8953L90.9063 0.915655C90.6405 0.730947 90.3247 0.632235 90.0013 0.632788C89.6779 0.633341 89.3625 0.733131 89.0973 0.918747L2.392 61.8947C2.32342 61.9429 2.23854 61.9619 2.15603 61.9474C2.07353 61.9329 2.00015 61.8861 1.95204 61.8173C1.90394 61.7486 1.88505 61.6635 1.89953 61.5807C1.91401 61.498 1.96068 61.4244 2.02926 61.3762L88.7346 0.400241C89.1059 0.140417 89.5476 0.000748973 90.0003 3.00384e-06C90.4531 -0.000742965 90.8952 0.137468 91.2673 0.396067L178.602 61.3756C178.657 61.4141 178.698 61.4693 178.72 61.5331C178.742 61.5969 178.743 61.666 178.722 61.7304C178.702 61.7947 178.662 61.8509 178.608 61.8907C178.554 61.9306 178.488 61.9521 178.421 61.9521Z" fill="#3F3D56"/>
<path d="M7.34656 64.1136L90.0872 2.63385L173.456 68.4882L94.3503 115.504L51.403 105.69L7.34656 64.1136Z" fill="#E6E6E6"/>
<path d="M55.0281 144.544H14.1523C13.9013 144.545 13.6527 144.495 13.4207 144.399C13.1887 144.303 12.9779 144.162 12.8003 143.984C12.6227 143.807 12.4818 143.595 12.3857 143.363C12.2896 143.13 12.2401 142.881 12.2401 142.63C12.2401 142.378 12.2896 142.129 12.3857 141.896C12.4818 141.664 12.6227 141.453 12.8003 141.275C12.9779 141.097 13.1887 140.956 13.4207 140.86C13.6527 140.764 13.9013 140.715 14.1523 140.715H55.0281C55.2791 140.715 55.5277 140.764 55.7597 140.86C55.9917 140.956 56.2025 141.097 56.3801 141.275C56.5577 141.453 56.6986 141.664 56.7947 141.896C56.8908 142.129 56.9403 142.378 56.9403 142.63C56.9403 142.881 56.8908 143.13 56.7947 143.363C56.6986 143.595 56.5577 143.807 56.3801 143.984C56.2025 144.162 55.9917 144.303 55.7597 144.399C55.5277 144.495 55.2791 144.545 55.0281 144.544Z" fill="#4F3B78"/>
<path d="M28.8176 136.312H14.1523C13.9013 136.313 13.6527 136.263 13.4207 136.167C13.1887 136.071 12.9779 135.93 12.8003 135.753C12.6227 135.575 12.4818 135.364 12.3857 135.131C12.2896 134.899 12.2401 134.649 12.2401 134.398C12.2401 134.146 12.2896 133.897 12.3857 133.665C12.4818 133.432 12.6227 133.221 12.8003 133.043C12.9779 132.865 13.1887 132.724 13.4207 132.628C13.6527 132.532 13.9013 132.483 14.1523 132.483H28.8176C29.0686 132.483 29.3172 132.532 29.5492 132.628C29.7812 132.724 29.992 132.865 30.1696 133.043C30.3472 133.221 30.4881 133.432 30.5842 133.665C30.6803 133.897 30.7298 134.146 30.7298 134.398C30.7298 134.649 30.6803 134.899 30.5842 135.131C30.4881 135.364 30.3472 135.575 30.1696 135.753C29.992 135.93 29.7812 136.071 29.5492 136.167C29.3172 136.263 29.0686 136.313 28.8176 136.312Z" fill="#4F3B78"/>
<path d="M91.2505 98.3571C90.9398 98.3574 90.6321 98.297 90.3445 98.1792L39.3158 76.951V10.5034C39.3165 9.91578 39.5496 9.35247 39.964 8.93699C40.3784 8.52151 40.9403 8.28779 41.5263 8.28711H139.421C140.007 8.28779 140.569 8.52151 140.983 8.93699C141.398 9.35247 141.631 9.91578 141.632 10.5034V76.9974L141.536 77.0385L92.184 98.1688C91.8885 98.2933 91.5711 98.3573 91.2505 98.3571Z" fill="white"/>
<path d="M91.2506 98.5152C90.9193 98.5156 90.5911 98.4512 90.2844 98.3257L39.158 77.0567V10.5033C39.1587 9.87379 39.4084 9.27022 39.8524 8.82506C40.2965 8.3799 40.8985 8.1295 41.5264 8.12878H139.421C140.049 8.1295 140.651 8.3799 141.095 8.82506C141.539 9.27022 141.789 9.87379 141.79 10.5033V77.1019L92.246 98.3143C91.9309 98.4472 91.5924 98.5155 91.2506 98.5152ZM39.7895 76.6338L90.5252 97.7403C90.9985 97.9328 91.5284 97.9296 91.9993 97.7314L141.158 76.6839V10.5033C141.157 10.0417 140.974 9.59908 140.649 9.27263C140.323 8.94618 139.882 8.76255 139.421 8.762H41.5264C41.0659 8.76255 40.6245 8.94618 40.2989 9.27263C39.9733 9.59908 39.7901 10.0417 39.7895 10.5033L39.7895 76.6338Z" fill="#3F3D56"/>
<path d="M177.789 61.3188H177.726L141.474 76.8389L91.8727 98.0738C91.6789 98.1555 91.4709 98.1982 91.2606 98.1992C91.0504 98.2003 90.8419 98.1599 90.6473 98.0801L39.4737 76.7946L2.33049 61.3442L2.27375 61.3188H2.21053C1.62446 61.3195 1.06258 61.5532 0.648164 61.9687C0.233751 62.3842 0.00065029 62.9475 0 63.5351V159.784C0.000651124 160.371 0.233751 160.935 0.648164 161.35C1.06258 161.766 1.62446 161.999 2.21053 162H177.789C178.376 161.999 178.937 161.766 179.352 161.35C179.766 160.935 179.999 160.371 180 159.784V63.5351C179.999 62.9475 179.766 62.3842 179.352 61.9687C178.937 61.5532 178.376 61.3195 177.789 61.3188ZM179.368 159.784C179.368 160.204 179.202 160.606 178.906 160.903C178.61 161.2 178.208 161.367 177.789 161.367H2.21053C1.79181 161.367 1.3903 161.2 1.09423 160.903C0.798155 160.606 0.631746 160.204 0.631579 159.784V63.5351C0.632152 63.1257 0.790535 62.7324 1.07361 62.4374C1.35669 62.1424 1.74256 61.9685 2.15054 61.9521L39.4737 77.4785L90.4043 98.6658C90.9556 98.8907 91.5734 98.8873 92.1222 98.6563L141.474 77.526L177.853 61.9521C178.26 61.9697 178.645 62.1441 178.927 62.4389C179.209 62.7338 179.367 63.1264 179.368 63.5351V159.784Z" fill="#3F3D56"/>
<path d="M90.7405 79.515C88.8566 79.5185 87.0228 78.9078 85.5155 77.7749L85.422 77.7045L65.7449 62.6C64.8336 61.8999 64.0687 61.0268 63.494 60.0304C62.9193 59.034 62.546 57.9339 62.3953 56.7928C62.2446 55.6518 62.3196 54.4922 62.616 53.3802C62.9123 52.2682 63.4242 51.2256 64.1225 50.3119C64.8207 49.3983 65.6916 48.6315 66.6854 48.0553C67.6792 47.4791 68.7765 47.1048 69.9146 46.9537C71.0527 46.8027 72.2093 46.8778 73.3185 47.175C74.4276 47.4721 75.4675 47.9853 76.3788 48.6853L89.1242 58.4836L119.244 19.1019C119.942 18.1885 120.813 17.4219 121.807 16.8461C122.801 16.2702 123.899 15.8963 125.037 15.7457C126.175 15.595 127.332 15.6706 128.441 15.9682C129.55 16.2657 130.589 16.7793 131.5 17.4797L131.313 17.7347L131.505 17.4835C133.343 18.8995 134.545 20.9886 134.849 23.2923C135.152 25.5961 134.531 27.9264 133.123 29.7721L97.6956 76.0944C96.8762 77.1619 95.8225 78.0257 94.6164 78.6189C93.4102 79.2121 92.0839 79.5187 90.7405 79.515Z" fill="#4F3B78"/>
</g>
<defs>
<filter id="filter0_d" x="0" y="0" width="188" height="170" filterUnits="userSpaceOnUse" color-interpolation-filters="sRGB">
<feFlood flood-opacity="0" result="BackgroundImageFix"/>
<feColorMatrix in="SourceAlpha" type="matrix" values="0 0 0 0 0 0 0 0 0 0 0 0 0 0 0 0 0 0 127 0"/>
<feOffset dx="4" dy="4"/>
<feGaussianBlur stdDeviation="2"/>
<feColorMatrix type="matrix" values="0 0 0 0 0 0 0 0 0 0 0 0 0 0 0 0 0 0 0.25 0"/>
<feBlend mode="normal" in2="BackgroundImageFix" result="effect1_dropShadow"/>
<feBlend mode="normal" in="SourceGraphic" in2="effect1_dropShadow" result="shape"/>
</filter>
</defs>
</svg>
