<svg width="796" height="575" viewBox="0 0 796 575" fill="none" xmlns="http://www.w3.org/2000/svg">
<g clip-path="url(#clip0)">
<path d="M74.4659 289.428C83.0807 272.065 87.953 256.943 85.3486 255.65C82.7443 254.358 73.6493 267.386 65.0345 284.748C56.4198 302.111 51.5474 317.234 54.1518 318.526C56.7561 319.818 65.8511 306.79 74.4659 289.428Z" fill="#E0E0E0"/>
<path d="M511.474 506.465C520.089 489.102 525.638 474.315 523.868 473.437C522.099 472.559 513.681 485.923 505.066 503.285C496.451 520.648 490.902 535.435 492.671 536.313C494.441 537.191 502.859 523.827 511.474 506.465Z" fill="#E0E0E0"/>
<path d="M276.638 418.691L260.401 405.284L215.71 459.407L231.947 472.814L276.638 418.691Z" fill="#F55F44"/>
<path opacity="0.05" d="M239.3 477.132L262.363 482.554L278.428 414.228L255.364 408.805L239.3 477.132Z" fill="black"/>
<path d="M241.865 477.735L262.363 482.554L278.428 414.228L257.93 409.409L241.865 477.735Z" fill="#F55F44"/>
<path d="M86.1286 254.078L53.3718 320.098L491.928 537.696L524.685 471.677L86.1286 254.078Z" fill="url(#paint0_linear)"/>
<path d="M492.708 536.124C484.124 532.007 47.8642 315.406 54.1518 318.526C78.3655 281.568 85.3487 255.65 85.3487 255.65L523.905 473.249C523.905 473.249 508.504 500.278 492.708 536.124Z" fill="#F5F5F5"/>
<path opacity="0.05" d="M313.272 368.739L277.119 350.801L245.922 413.676L282.075 431.614L313.272 368.739Z" fill="black"/>
<path d="M311.7 367.959L278.691 351.581L247.494 414.456L280.503 430.834L311.7 367.959Z" fill="#F55F44"/>
<path opacity="0.05" d="M305.413 364.839L283.406 353.92L252.209 416.796L274.216 427.715L305.413 364.839Z" fill="black"/>
<path d="M303.841 364.06L284.978 354.7L253.781 417.576L272.644 426.935L303.841 364.06Z" fill="#F55F44"/>
<path d="M301.301 566.851C302.917 566.851 304.227 565.541 304.227 563.925C304.227 562.309 302.917 560.999 301.301 560.999C299.685 560.999 298.375 562.309 298.375 563.925C298.375 565.541 299.685 566.851 301.301 566.851Z" fill="#DBDBDB"/>
<g opacity="0.5">
<path opacity="0.5" d="M72.3896 482H69.3896V499H72.3896V482Z" fill="#47E6B1"/>
<path opacity="0.5" d="M79.3896 492V489H62.3896V492H79.3896Z" fill="#47E6B1"/>
</g>
<g opacity="0.5">
<path opacity="0.5" d="M90.3896 59H87.3896V76H90.3896V59Z" fill="#47E6B1"/>
<path opacity="0.5" d="M97.3896 69V66H80.3896V69H97.3896Z" fill="#47E6B1"/>
</g>
<path opacity="0.5" d="M52.285 253.456C51.4582 253.096 50.7928 252.445 50.4152 251.626C50.0377 250.807 49.9744 249.878 50.2375 249.015C50.2801 248.883 50.3069 248.746 50.3174 248.608V248.608C50.3414 248.213 50.2376 247.82 50.0212 247.489C49.8048 247.157 49.4874 246.904 49.1159 246.767C48.7445 246.63 48.3388 246.616 47.9589 246.728C47.5791 246.84 47.2453 247.071 47.007 247.387V247.387C46.925 247.499 46.8566 247.62 46.803 247.748C46.443 248.575 45.7915 249.241 44.9726 249.618C44.1537 249.996 43.2246 250.059 42.3621 249.796C42.2298 249.753 42.093 249.727 41.9545 249.716V249.716C41.5593 249.692 41.1669 249.796 40.8354 250.012C40.5039 250.229 40.2509 250.546 40.1139 250.918C39.9769 251.289 39.9631 251.695 40.0747 252.074C40.1863 252.454 40.4172 252.788 40.7333 253.026V253.026C40.8455 253.108 40.9669 253.177 41.0951 253.23C41.9219 253.59 42.5873 254.242 42.9649 255.061C43.3424 255.88 43.4057 256.809 43.1426 257.671C43.1 257.804 43.0732 257.94 43.0627 258.079V258.079C43.0386 258.474 43.1425 258.866 43.3589 259.198C43.5753 259.53 43.8927 259.783 44.2642 259.92C44.6356 260.057 45.0413 260.07 45.4212 259.959C45.801 259.847 46.1348 259.616 46.3731 259.3V259.3C46.4551 259.188 46.5235 259.067 46.577 258.938C46.9371 258.112 47.5886 257.446 48.4075 257.069C49.2264 256.691 50.1555 256.628 51.018 256.891C51.1503 256.933 51.2871 256.96 51.4256 256.971V256.971C51.8208 256.995 52.2132 256.891 52.5447 256.675C52.8762 256.458 53.1292 256.141 53.2663 255.769C53.4033 255.398 53.417 254.992 53.3054 254.612C53.1939 254.232 52.9629 253.899 52.6468 253.66C52.5346 253.578 52.4132 253.51 52.285 253.456V253.456Z" fill="#4D8AF0"/>
<path opacity="0.5" d="M224.285 56.4564C223.458 56.0963 222.793 55.4449 222.415 54.626C222.038 53.8071 221.974 52.8779 222.238 52.0154C222.28 51.8832 222.307 51.7464 222.317 51.6079V51.6079C222.341 51.2127 222.238 50.8203 222.021 50.4887C221.805 50.1572 221.487 49.9042 221.116 49.7672C220.744 49.6302 220.339 49.6164 219.959 49.728C219.579 49.8396 219.245 50.0705 219.007 50.3867V50.3867C218.925 50.4988 218.857 50.6203 218.803 50.7485C218.443 51.5752 217.791 52.2407 216.973 52.6182C216.154 52.9958 215.225 53.059 214.362 52.796C214.23 52.7534 214.093 52.7266 213.955 52.716V52.716C213.559 52.692 213.167 52.7959 212.835 53.0123C212.504 53.2287 212.251 53.5461 212.114 53.9175C211.977 54.289 211.963 54.6946 212.075 55.0745C212.186 55.4543 212.417 55.7882 212.733 56.0265V56.0265C212.845 56.1085 212.967 56.1769 213.095 56.2304C213.922 56.5905 214.587 57.2419 214.965 58.0608C215.342 58.8797 215.406 59.8089 215.143 60.6714C215.1 60.8036 215.073 60.9404 215.063 61.0789V61.0789C215.039 61.4741 215.143 61.8665 215.359 62.198C215.575 62.5296 215.893 62.7826 216.264 62.9196C216.636 63.0566 217.041 63.0704 217.421 62.9588C217.801 62.8472 218.135 62.6162 218.373 62.3001C218.455 62.188 218.524 62.0665 218.577 61.9383C218.937 61.1116 219.589 60.4461 220.407 60.0686C221.226 59.691 222.156 59.6278 223.018 59.8908C223.15 59.9334 223.287 59.9602 223.426 59.9707V59.9707C223.821 59.9948 224.213 59.8909 224.545 59.6745C224.876 59.4581 225.129 59.1407 225.266 58.7693C225.403 58.3978 225.417 57.9922 225.305 57.6123C225.194 57.2324 224.963 56.8986 224.647 56.6603V56.6603C224.535 56.5783 224.413 56.5099 224.285 56.4564V56.4564Z" fill="#4D8AF0"/>
<path opacity="0.5" d="M434.285 567.456C433.458 567.096 432.793 566.445 432.415 565.626C432.038 564.807 431.974 563.878 432.237 563.015C432.28 562.883 432.307 562.746 432.317 562.608V562.608C432.341 562.213 432.238 561.82 432.021 561.489C431.805 561.157 431.487 560.904 431.116 560.767C430.744 560.63 430.339 560.616 429.959 560.728C429.579 560.84 429.245 561.071 429.007 561.387C428.925 561.499 428.857 561.62 428.803 561.748C428.443 562.575 427.792 563.241 426.973 563.618C426.154 563.996 425.225 564.059 424.362 563.796C424.23 563.753 424.093 563.727 423.954 563.716V563.716C423.559 563.692 423.167 563.796 422.835 564.012C422.504 564.229 422.251 564.546 422.114 564.918C421.977 565.289 421.963 565.695 422.075 566.075C422.186 566.454 422.417 566.788 422.733 567.026C422.845 567.108 422.967 567.177 423.095 567.23C423.922 567.59 424.587 568.242 424.965 569.061C425.342 569.88 425.406 570.809 425.143 571.671C425.1 571.804 425.073 571.94 425.063 572.079V572.079C425.039 572.474 425.142 572.867 425.359 573.198C425.575 573.53 425.893 573.783 426.264 573.92C426.636 574.057 427.041 574.07 427.421 573.959C427.801 573.847 428.135 573.616 428.373 573.3V573.3C428.455 573.188 428.524 573.067 428.577 572.938C428.937 572.112 429.589 571.446 430.407 571.069C431.226 570.691 432.155 570.628 433.018 570.891C433.15 570.933 433.287 570.96 433.426 570.971V570.971C433.821 570.995 434.213 570.891 434.545 570.675C434.876 570.458 435.129 570.141 435.266 569.769C435.403 569.398 435.417 568.992 435.305 568.612C435.194 568.232 434.963 567.899 434.647 567.66V567.66C434.535 567.578 434.413 567.51 434.285 567.456V567.456Z" fill="#4D8AF0"/>
<path opacity="0.5" d="M667.39 488C670.703 488 673.39 485.314 673.39 482C673.39 478.686 670.703 476 667.39 476C664.076 476 661.39 478.686 661.39 482C661.39 485.314 664.076 488 667.39 488Z" fill="#4D8AF0"/>
<path opacity="0.5" d="M143.39 547C146.703 547 149.39 544.314 149.39 541C149.39 537.686 146.703 535 143.39 535C140.076 535 137.39 537.686 137.39 541C137.39 544.314 140.076 547 143.39 547Z" fill="#47E6B1"/>
<path opacity="0.5" d="M451.39 12C454.703 12 457.39 9.31371 457.39 6C457.39 2.68629 454.703 0 451.39 0C448.076 0 445.39 2.68629 445.39 6C445.39 9.31371 448.076 12 451.39 12Z" fill="#F55F44"/>
<path d="M244.89 357.5L220.89 393.5C220.89 393.5 228.89 430.5 405.89 429.5C582.89 428.5 596.89 393.5 596.89 393.5L563.89 345.5L462.89 276.5L244.89 357.5Z" fill="#6C63FF"/>
<path opacity="0.15" d="M244.89 357.5L220.89 393.5C220.89 393.5 228.89 430.5 405.89 429.5C582.89 428.5 596.89 393.5 596.89 393.5L563.89 345.5L462.89 276.5L244.89 357.5Z" fill="black"/>
<path d="M755.389 224L440.389 363L56.3893 224L408.389 64L581.179 143.67L587.369 146.53L755.389 224Z" fill="#6C63FF"/>
<path opacity="0.15" d="M755.389 224L440.389 363L56.3893 224L408.389 64L581.179 143.67L587.369 146.53L755.389 224Z" fill="black"/>
<path d="M593.889 257.32L587.889 257.68L581.179 143.67L587.369 146.53L593.889 257.32Z" fill="#F5F5F5"/>
<path d="M248.89 223.5L220.89 393.5C220.89 393.5 421.89 328.5 596.89 393.5L570.89 213.5C570.89 213.5 335.89 184.5 248.89 223.5Z" fill="#6C63FF"/>
<path d="M593.39 292C609.406 292 622.39 283.046 622.39 272C622.39 260.954 609.406 252 593.39 252C577.373 252 564.39 260.954 564.39 272C564.39 283.046 577.373 292 593.39 292Z" fill="#F5F5F5"/>
</g>
<defs>
<linearGradient id="paint0_linear" x1="272.65" y1="428.897" x2="305.407" y2="362.878" gradientUnits="userSpaceOnUse">
<stop stop-color="#808080" stop-opacity="0.25"/>
<stop offset="0.53514" stop-color="#808080" stop-opacity="0.12"/>
<stop offset="1" stop-color="#808080" stop-opacity="0.1"/>
</linearGradient>
<clipPath id="clip0">
<rect width="795.394" height="574.038" fill="white"/>
</clipPath>
</defs>
</svg>
