<svg width="43" height="49" viewBox="0 0 43 49" fill="none" xmlns="http://www.w3.org/2000/svg">
<path d="M9.62509 42.8758H0.710268V14.251H9.62509V42.8758ZM5.16288 10.3463C2.31221 10.3463 0 7.99202 0 5.14964C2.04039e-08 3.78434 0.543945 2.47496 1.51217 1.50955C2.4804 0.544133 3.7936 0.00177002 5.16288 0.00177002C6.53216 0.00177002 7.84536 0.544133 8.81359 1.50955C9.78181 2.47496 10.3258 3.78434 10.3258 5.14964C10.3258 7.99202 8.01259 10.3463 5.16288 10.3463ZM42.9904 42.8758H34.0948V28.9414C34.0948 25.6205 34.0276 21.3618 29.4598 21.3618C24.8248 21.3618 24.1146 24.9698 24.1146 28.7022V42.8758H15.2093V14.251H23.7594V18.1557H23.8842C25.0744 15.9067 27.9817 13.5332 32.3191 13.5332C41.3414 13.5332 43 19.4573 43 27.1518V42.8758H42.9904Z" fill="white"/>
</svg>
