<svg width="1920" height="1080" viewBox="0 0 1920 1080" fill="none" xmlns="http://www.w3.org/2000/svg">
<g clip-path="url(#clip0)">
<path d="M1920 540H1280V1080H1920V540Z" fill="#C4BBF0"/>
<path d="M2021.6 1134L1864.8 1037.48L1696 985.5L1527.2 903.15L1312 944.325L1516 1055.7L1381.2 1133.66L1312 944.325L1122.4 872.775L1361.6 797.85L1255.2 694.575L1381.2 593.663L1224.8 497.475M1895.2 694.575L2109.6 716.108L1895.2 694.575Z" stroke="#927FBF" stroke-width="0.5"/>
<path d="M1576 1150.87L1516 1055.7M1255.2 694.575L1469.6 716.175L1592 797.85L1762.4 872.775L1526.8 902.812L1361.2 797.513L1255.2 694.575Z" stroke="#927FBF" stroke-width="0.5"/>
<path d="M1696 985.5L1742.4 1108.35L1864.8 1037.48L1952 944.325L1762.4 872.775L1696 985.5ZM1696 985.5L1516 1055.7L1527.2 903.15L1592 797.85L1711.2 721.575L1895.2 694.575L1742 568.012L1576 610.875L1516 515.7L1381.2 593.662L1469.6 716.175L1361.6 797.85L1312 944.325L1224.8 1037.48L1381.6 1134" stroke="#927FBF" stroke-width="0.5"/>
<path d="M1592 797.85H1361.6M1696 445.5L1742.8 568.688L1864.8 497.475L1696 445.5ZM1762.4 872.775L1711.2 721.575L1469.6 716.175L1576 610.875L1762.4 872.775ZM2001.6 797.85L1711.2 721.575L2001.6 797.85Z" stroke="#927FBF" stroke-width="0.5"/>
<path d="M1361.6 797.85L1071.2 721.575M1102.4 568.35L1381.2 593.662L1576 610.875L1711.2 721.575L1742 568.012L2021.6 594L1895.2 694.575L2001.6 797.85L1762.4 872.775L1864.8 1037.47L1102.4 568.35ZM1516 515.7L1742 568.012L1516 515.7ZM1742.4 1108.35L1516 1055.7L1742.4 1108.35ZM1312 404.325L1381.6 594L1312 404.325Z" stroke="#927FBF" stroke-width="0.5"/>
<path d="M1895.2 697.95C1897.41 697.95 1899.2 696.439 1899.2 694.575C1899.2 692.711 1897.41 691.2 1895.2 691.2C1892.99 691.2 1891.2 692.711 1891.2 694.575C1891.2 696.439 1892.99 697.95 1895.2 697.95Z" fill="#4F3B78"/>
<path d="M1711.2 724.95C1713.41 724.95 1715.2 723.439 1715.2 721.575C1715.2 719.711 1713.41 718.2 1711.2 718.2C1708.99 718.2 1707.2 719.711 1707.2 721.575C1707.2 723.439 1708.99 724.95 1711.2 724.95Z" fill="#4F3B78"/>
<path d="M1762.4 876.15C1764.61 876.15 1766.4 874.639 1766.4 872.775C1766.4 870.911 1764.61 869.4 1762.4 869.4C1760.19 869.4 1758.4 870.911 1758.4 872.775C1758.4 874.639 1760.19 876.15 1762.4 876.15Z" fill="#4F3B78"/>
<path d="M1864.8 1040.85C1867.01 1040.85 1868.8 1039.34 1868.8 1037.47C1868.8 1035.61 1867.01 1034.1 1864.8 1034.1C1862.59 1034.1 1860.8 1035.61 1860.8 1037.47C1860.8 1039.34 1862.59 1040.85 1864.8 1040.85Z" fill="#4F3B78"/>
<path d="M1696 988.875C1698.21 988.875 1700 987.364 1700 985.5C1700 983.636 1698.21 982.125 1696 982.125C1693.79 982.125 1692 983.636 1692 985.5C1692 987.364 1693.79 988.875 1696 988.875Z" fill="#4F3B78"/>
<path d="M1527.2 906.525C1529.41 906.525 1531.2 905.014 1531.2 903.15C1531.2 901.286 1529.41 899.775 1527.2 899.775C1524.99 899.775 1523.2 901.286 1523.2 903.15C1523.2 905.014 1524.99 906.525 1527.2 906.525Z" fill="#4F3B78"/>
<path d="M1516 1059.07C1518.21 1059.07 1520 1057.56 1520 1055.7C1520 1053.84 1518.21 1052.33 1516 1052.33C1513.79 1052.33 1512 1053.84 1512 1055.7C1512 1057.56 1513.79 1059.07 1516 1059.07Z" fill="#4F3B78"/>
<path d="M1312 947.7C1314.21 947.7 1316 946.189 1316 944.325C1316 942.461 1314.21 940.95 1312 940.95C1309.79 940.95 1308 942.461 1308 944.325C1308 946.189 1309.79 947.7 1312 947.7Z" fill="#4F3B78"/>
<path d="M1361.6 801.225C1363.81 801.225 1365.6 799.714 1365.6 797.85C1365.6 795.986 1363.81 794.475 1361.6 794.475C1359.39 794.475 1357.6 795.986 1357.6 797.85C1357.6 799.714 1359.39 801.225 1361.6 801.225Z" fill="#4F3B78"/>
<path d="M1381.6 597.375C1383.81 597.375 1385.6 595.864 1385.6 594C1385.6 592.136 1383.81 590.625 1381.6 590.625C1379.39 590.625 1377.6 592.136 1377.6 594C1377.6 595.864 1379.39 597.375 1381.6 597.375Z" fill="#4F3B78"/>
<path d="M1576 614.25C1578.21 614.25 1580 612.739 1580 610.875C1580 609.011 1578.21 607.5 1576 607.5C1573.79 607.5 1572 609.011 1572 610.875C1572 612.739 1573.79 614.25 1576 614.25Z" fill="#4F3B78"/>
<path d="M1742.4 571.725C1744.61 571.725 1746.4 570.214 1746.4 568.35C1746.4 566.486 1744.61 564.975 1742.4 564.975C1740.19 564.975 1738.4 566.486 1738.4 568.35C1738.4 570.214 1740.19 571.725 1742.4 571.725Z" fill="#4F3B78"/>
<path d="M1469.6 719.55C1471.81 719.55 1473.6 718.039 1473.6 716.175C1473.6 714.311 1471.81 712.8 1469.6 712.8C1467.39 712.8 1465.6 714.311 1465.6 716.175C1465.6 718.039 1467.39 719.55 1469.6 719.55Z" fill="#4F3B78"/>
<path d="M1592 801.225C1594.21 801.225 1596 799.714 1596 797.85C1596 795.986 1594.21 794.475 1592 794.475C1589.79 794.475 1588 795.986 1588 797.85C1588 799.714 1589.79 801.225 1592 801.225Z" fill="#4F3B78"/>
</g>
<g clip-path="url(#clip1)">
<path d="M640 0H0V540H640V0Z" fill="#C4BBF0"/>
<path d="M741.6 594L584.8 497.475L416 445.5L247.2 363.15L32 404.325L236 515.7L101.2 593.663L32 404.325L-157.6 332.775L81.6 257.85L-24.8 154.575L101.2 53.6625L-55.2 -42.525M615.2 154.575L829.6 176.108L615.2 154.575Z" stroke="#927FBF" stroke-width="0.5"/>
<path d="M296 610.875L236 515.7M-24.8 154.575L189.6 176.175L312 257.85L482.4 332.775L246.8 362.812L81.2 257.512L-24.8 154.575Z" stroke="#927FBF" stroke-width="0.5"/>
<path d="M416 445.5L462.4 568.35L584.8 497.475L672 404.325L482.4 332.775L416 445.5ZM416 445.5L236 515.7L247.2 363.15L312 257.85L431.2 181.575L615.2 154.575L462 28.0125L296 70.875L236 -24.3L101.2 53.6625L189.6 176.175L81.6 257.85L32 404.325L-55.2 497.475L101.6 594" stroke="#927FBF" stroke-width="0.5"/>
<path d="M312 257.85H81.6M416 -94.5L462.8 28.6875L584.8 -42.525L416 -94.5ZM482.4 332.775L431.2 181.575L189.6 176.175L296 70.875L482.4 332.775ZM721.6 257.85L431.2 181.575L721.6 257.85Z" stroke="#927FBF" stroke-width="0.5"/>
<path d="M81.6001 257.85L-208.8 181.575M-177.6 28.35L101.2 53.6625L296 70.8749L431.2 181.575L462 28.0125L741.6 54L615.2 154.575L721.6 257.85L482.4 332.775L584.8 497.475L-177.6 28.35ZM236 -24.3L462 28.0125L236 -24.3ZM462.4 568.35L236 515.7L462.4 568.35ZM32.0001 -135.675L101.6 54L32.0001 -135.675Z" stroke="#927FBF" stroke-width="0.5"/>
<path d="M615.2 157.95C617.409 157.95 619.2 156.439 619.2 154.575C619.2 152.711 617.409 151.2 615.2 151.2C612.991 151.2 611.2 152.711 611.2 154.575C611.2 156.439 612.991 157.95 615.2 157.95Z" fill="#4F3B78"/>
<path d="M431.2 184.95C433.409 184.95 435.2 183.439 435.2 181.575C435.2 179.711 433.409 178.2 431.2 178.2C428.991 178.2 427.2 179.711 427.2 181.575C427.2 183.439 428.991 184.95 431.2 184.95Z" fill="#4F3B78"/>
<path d="M482.4 336.15C484.609 336.15 486.4 334.639 486.4 332.775C486.4 330.911 484.609 329.4 482.4 329.4C480.191 329.4 478.4 330.911 478.4 332.775C478.4 334.639 480.191 336.15 482.4 336.15Z" fill="#4F3B78"/>
<path d="M584.8 500.85C587.009 500.85 588.8 499.339 588.8 497.475C588.8 495.611 587.009 494.1 584.8 494.1C582.591 494.1 580.8 495.611 580.8 497.475C580.8 499.339 582.591 500.85 584.8 500.85Z" fill="#4F3B78"/>
<path d="M416 448.875C418.209 448.875 420 447.364 420 445.5C420 443.636 418.209 442.125 416 442.125C413.791 442.125 412 443.636 412 445.5C412 447.364 413.791 448.875 416 448.875Z" fill="#4F3B78"/>
<path d="M247.2 366.525C249.409 366.525 251.2 365.014 251.2 363.15C251.2 361.286 249.409 359.775 247.2 359.775C244.991 359.775 243.2 361.286 243.2 363.15C243.2 365.014 244.991 366.525 247.2 366.525Z" fill="#4F3B78"/>
<path d="M236 519.075C238.209 519.075 240 517.564 240 515.7C240 513.836 238.209 512.325 236 512.325C233.791 512.325 232 513.836 232 515.7C232 517.564 233.791 519.075 236 519.075Z" fill="#4F3B78"/>
<path d="M32 407.7C34.2091 407.7 36 406.189 36 404.325C36 402.461 34.2091 400.95 32 400.95C29.7909 400.95 28 402.461 28 404.325C28 406.189 29.7909 407.7 32 407.7Z" fill="#4F3B78"/>
<path d="M81.6 261.225C83.8091 261.225 85.6 259.714 85.6 257.85C85.6 255.986 83.8091 254.475 81.6 254.475C79.3909 254.475 77.6 255.986 77.6 257.85C77.6 259.714 79.3909 261.225 81.6 261.225Z" fill="#4F3B78"/>
<path d="M101.6 57.375C103.809 57.375 105.6 55.864 105.6 54C105.6 52.1361 103.809 50.625 101.6 50.625C99.3909 50.625 97.6 52.1361 97.6 54C97.6 55.864 99.3909 57.375 101.6 57.375Z" fill="#4F3B78"/>
<path d="M296 74.25C298.209 74.25 300 72.739 300 70.875C300 69.0111 298.209 67.5 296 67.5C293.791 67.5 292 69.0111 292 70.875C292 72.739 293.791 74.25 296 74.25Z" fill="#4F3B78"/>
<path d="M462.4 31.725C464.609 31.725 466.4 30.214 466.4 28.35C466.4 26.486 464.609 24.975 462.4 24.975C460.191 24.975 458.4 26.486 458.4 28.35C458.4 30.214 460.191 31.725 462.4 31.725Z" fill="#4F3B78"/>
<path d="M189.6 179.55C191.809 179.55 193.6 178.039 193.6 176.175C193.6 174.311 191.809 172.8 189.6 172.8C187.391 172.8 185.6 174.311 185.6 176.175C185.6 178.039 187.391 179.55 189.6 179.55Z" fill="#4F3B78"/>
<path d="M312 261.225C314.209 261.225 316 259.714 316 257.85C316 255.986 314.209 254.475 312 254.475C309.791 254.475 308 255.986 308 257.85C308 259.714 309.791 261.225 312 261.225Z" fill="#4F3B78"/>
</g>
<g clip-path="url(#clip2)">
<path d="M1280 0H640V540H1280V0Z" fill="#C4BBF0"/>
<path d="M1381.6 594L1224.8 497.475L1056 445.5L887.2 363.15L672 404.325L876 515.7L741.2 593.663L672 404.325L482.4 332.775L721.6 257.85L615.2 154.575L741.2 53.6625L584.8 -42.525M1255.2 154.575L1469.6 176.108L1255.2 154.575Z" stroke="#927FBF" stroke-width="0.5"/>
<path d="M936 610.875L876 515.7M615.2 154.575L829.6 176.175L952 257.85L1122.4 332.775L886.8 362.812L721.2 257.512L615.2 154.575Z" stroke="#927FBF" stroke-width="0.5"/>
<path d="M1056 445.5L1102.4 568.35L1224.8 497.475L1312 404.325L1122.4 332.775L1056 445.5ZM1056 445.5L876 515.7L887.2 363.15L952 257.85L1071.2 181.575L1255.2 154.575L1102 28.0125L936 70.875L876 -24.3L741.2 53.6625L829.6 176.175L721.6 257.85L672 404.325L584.8 497.475L741.6 594" stroke="#927FBF" stroke-width="0.5"/>
<path d="M952 257.85H721.6M1056 -94.5L1102.8 28.6875L1224.8 -42.525L1056 -94.5ZM1122.4 332.775L1071.2 181.575L829.6 176.175L936 70.875L1122.4 332.775ZM1361.6 257.85L1071.2 181.575L1361.6 257.85Z" stroke="#927FBF" stroke-width="0.5"/>
<path d="M721.6 257.85L431.2 181.575M462.4 28.35L741.2 53.6625L936 70.8749L1071.2 181.575L1102 28.0125L1381.6 54L1255.2 154.575L1361.6 257.85L1122.4 332.775L1224.8 497.475L462.4 28.35ZM876 -24.3L1102 28.0125L876 -24.3ZM1102.4 568.35L876 515.7L1102.4 568.35ZM672 -135.675L741.6 54L672 -135.675Z" stroke="#927FBF" stroke-width="0.5"/>
<path d="M1255.2 157.95C1257.41 157.95 1259.2 156.439 1259.2 154.575C1259.2 152.711 1257.41 151.2 1255.2 151.2C1252.99 151.2 1251.2 152.711 1251.2 154.575C1251.2 156.439 1252.99 157.95 1255.2 157.95Z" fill="#4F3B78"/>
<path d="M1071.2 184.95C1073.41 184.95 1075.2 183.439 1075.2 181.575C1075.2 179.711 1073.41 178.2 1071.2 178.2C1068.99 178.2 1067.2 179.711 1067.2 181.575C1067.2 183.439 1068.99 184.95 1071.2 184.95Z" fill="#4F3B78"/>
<path d="M1122.4 336.15C1124.61 336.15 1126.4 334.639 1126.4 332.775C1126.4 330.911 1124.61 329.4 1122.4 329.4C1120.19 329.4 1118.4 330.911 1118.4 332.775C1118.4 334.639 1120.19 336.15 1122.4 336.15Z" fill="#4F3B78"/>
<path d="M1224.8 500.85C1227.01 500.85 1228.8 499.339 1228.8 497.475C1228.8 495.611 1227.01 494.1 1224.8 494.1C1222.59 494.1 1220.8 495.611 1220.8 497.475C1220.8 499.339 1222.59 500.85 1224.8 500.85Z" fill="#4F3B78"/>
<path d="M1056 448.875C1058.21 448.875 1060 447.364 1060 445.5C1060 443.636 1058.21 442.125 1056 442.125C1053.79 442.125 1052 443.636 1052 445.5C1052 447.364 1053.79 448.875 1056 448.875Z" fill="#4F3B78"/>
<path d="M887.2 366.525C889.409 366.525 891.2 365.014 891.2 363.15C891.2 361.286 889.409 359.775 887.2 359.775C884.991 359.775 883.2 361.286 883.2 363.15C883.2 365.014 884.991 366.525 887.2 366.525Z" fill="#4F3B78"/>
<path d="M876 519.075C878.209 519.075 880 517.564 880 515.7C880 513.836 878.209 512.325 876 512.325C873.791 512.325 872 513.836 872 515.7C872 517.564 873.791 519.075 876 519.075Z" fill="#4F3B78"/>
<path d="M672 407.7C674.209 407.7 676 406.189 676 404.325C676 402.461 674.209 400.95 672 400.95C669.791 400.95 668 402.461 668 404.325C668 406.189 669.791 407.7 672 407.7Z" fill="#4F3B78"/>
<path d="M721.6 261.225C723.809 261.225 725.6 259.714 725.6 257.85C725.6 255.986 723.809 254.475 721.6 254.475C719.391 254.475 717.6 255.986 717.6 257.85C717.6 259.714 719.391 261.225 721.6 261.225Z" fill="#4F3B78"/>
<path d="M741.6 57.375C743.809 57.375 745.6 55.864 745.6 54C745.6 52.1361 743.809 50.625 741.6 50.625C739.391 50.625 737.6 52.1361 737.6 54C737.6 55.864 739.391 57.375 741.6 57.375Z" fill="#4F3B78"/>
<path d="M936 74.25C938.209 74.25 940 72.739 940 70.875C940 69.0111 938.209 67.5 936 67.5C933.791 67.5 932 69.0111 932 70.875C932 72.739 933.791 74.25 936 74.25Z" fill="#4F3B78"/>
<path d="M1102.4 31.725C1104.61 31.725 1106.4 30.214 1106.4 28.35C1106.4 26.486 1104.61 24.975 1102.4 24.975C1100.19 24.975 1098.4 26.486 1098.4 28.35C1098.4 30.214 1100.19 31.725 1102.4 31.725Z" fill="#4F3B78"/>
<path d="M829.6 179.55C831.809 179.55 833.6 178.039 833.6 176.175C833.6 174.311 831.809 172.8 829.6 172.8C827.391 172.8 825.6 174.311 825.6 176.175C825.6 178.039 827.391 179.55 829.6 179.55Z" fill="#4F3B78"/>
<path d="M952 261.225C954.209 261.225 956 259.714 956 257.85C956 255.986 954.209 254.475 952 254.475C949.791 254.475 948 255.986 948 257.85C948 259.714 949.791 261.225 952 261.225Z" fill="#4F3B78"/>
</g>
<g clip-path="url(#clip3)">
<path d="M1920 0H1280V540H1920V0Z" fill="#C4BBF0"/>
<path d="M2021.6 594L1864.8 497.475L1696 445.5L1527.2 363.15L1312 404.325L1516 515.7L1381.2 593.663L1312 404.325L1122.4 332.775L1361.6 257.85L1255.2 154.575L1381.2 53.6625L1224.8 -42.525M1895.2 154.575L2109.6 176.108L1895.2 154.575Z" stroke="#927FBF" stroke-width="0.5"/>
<path d="M1576 610.875L1516 515.7M1255.2 154.575L1469.6 176.175L1592 257.85L1762.4 332.775L1526.8 362.812L1361.2 257.512L1255.2 154.575Z" stroke="#927FBF" stroke-width="0.5"/>
<path d="M1696 445.5L1742.4 568.35L1864.8 497.475L1952 404.325L1762.4 332.775L1696 445.5ZM1696 445.5L1516 515.7L1527.2 363.15L1592 257.85L1711.2 181.575L1895.2 154.575L1742 28.0125L1576 70.875L1516 -24.3L1381.2 53.6625L1469.6 176.175L1361.6 257.85L1312 404.325L1224.8 497.475L1381.6 594" stroke="#927FBF" stroke-width="0.5"/>
<path d="M1592 257.85H1361.6M1696 -94.5L1742.8 28.6875L1864.8 -42.525L1696 -94.5ZM1762.4 332.775L1711.2 181.575L1469.6 176.175L1576 70.875L1762.4 332.775ZM2001.6 257.85L1711.2 181.575L2001.6 257.85Z" stroke="#927FBF" stroke-width="0.5"/>
<path d="M1361.6 257.85L1071.2 181.575M1102.4 28.35L1381.2 53.6625L1576 70.8749L1711.2 181.575L1742 28.0125L2021.6 54L1895.2 154.575L2001.6 257.85L1762.4 332.775L1864.8 497.475L1102.4 28.35ZM1516 -24.3L1742 28.0125L1516 -24.3ZM1742.4 568.35L1516 515.7L1742.4 568.35ZM1312 -135.675L1381.6 54L1312 -135.675Z" stroke="#927FBF" stroke-width="0.5"/>
<path d="M1895.2 157.95C1897.41 157.95 1899.2 156.439 1899.2 154.575C1899.2 152.711 1897.41 151.2 1895.2 151.2C1892.99 151.2 1891.2 152.711 1891.2 154.575C1891.2 156.439 1892.99 157.95 1895.2 157.95Z" fill="#4F3B78"/>
<path d="M1711.2 184.95C1713.41 184.95 1715.2 183.439 1715.2 181.575C1715.2 179.711 1713.41 178.2 1711.2 178.2C1708.99 178.2 1707.2 179.711 1707.2 181.575C1707.2 183.439 1708.99 184.95 1711.2 184.95Z" fill="#4F3B78"/>
<path d="M1762.4 336.15C1764.61 336.15 1766.4 334.639 1766.4 332.775C1766.4 330.911 1764.61 329.4 1762.4 329.4C1760.19 329.4 1758.4 330.911 1758.4 332.775C1758.4 334.639 1760.19 336.15 1762.4 336.15Z" fill="#4F3B78"/>
<path d="M1864.8 500.85C1867.01 500.85 1868.8 499.339 1868.8 497.475C1868.8 495.611 1867.01 494.1 1864.8 494.1C1862.59 494.1 1860.8 495.611 1860.8 497.475C1860.8 499.339 1862.59 500.85 1864.8 500.85Z" fill="#4F3B78"/>
<path d="M1696 448.875C1698.21 448.875 1700 447.364 1700 445.5C1700 443.636 1698.21 442.125 1696 442.125C1693.79 442.125 1692 443.636 1692 445.5C1692 447.364 1693.79 448.875 1696 448.875Z" fill="#4F3B78"/>
<path d="M1527.2 366.525C1529.41 366.525 1531.2 365.014 1531.2 363.15C1531.2 361.286 1529.41 359.775 1527.2 359.775C1524.99 359.775 1523.2 361.286 1523.2 363.15C1523.2 365.014 1524.99 366.525 1527.2 366.525Z" fill="#4F3B78"/>
<path d="M1516 519.075C1518.21 519.075 1520 517.564 1520 515.7C1520 513.836 1518.21 512.325 1516 512.325C1513.79 512.325 1512 513.836 1512 515.7C1512 517.564 1513.79 519.075 1516 519.075Z" fill="#4F3B78"/>
<path d="M1312 407.7C1314.21 407.7 1316 406.189 1316 404.325C1316 402.461 1314.21 400.95 1312 400.95C1309.79 400.95 1308 402.461 1308 404.325C1308 406.189 1309.79 407.7 1312 407.7Z" fill="#4F3B78"/>
<path d="M1361.6 261.225C1363.81 261.225 1365.6 259.714 1365.6 257.85C1365.6 255.986 1363.81 254.475 1361.6 254.475C1359.39 254.475 1357.6 255.986 1357.6 257.85C1357.6 259.714 1359.39 261.225 1361.6 261.225Z" fill="#4F3B78"/>
<path d="M1381.6 57.375C1383.81 57.375 1385.6 55.864 1385.6 54C1385.6 52.1361 1383.81 50.625 1381.6 50.625C1379.39 50.625 1377.6 52.1361 1377.6 54C1377.6 55.864 1379.39 57.375 1381.6 57.375Z" fill="#4F3B78"/>
<path d="M1576 74.25C1578.21 74.25 1580 72.739 1580 70.875C1580 69.0111 1578.21 67.5 1576 67.5C1573.79 67.5 1572 69.0111 1572 70.875C1572 72.739 1573.79 74.25 1576 74.25Z" fill="#4F3B78"/>
<path d="M1742.4 31.725C1744.61 31.725 1746.4 30.214 1746.4 28.35C1746.4 26.486 1744.61 24.975 1742.4 24.975C1740.19 24.975 1738.4 26.486 1738.4 28.35C1738.4 30.214 1740.19 31.725 1742.4 31.725Z" fill="#4F3B78"/>
<path d="M1469.6 179.55C1471.81 179.55 1473.6 178.039 1473.6 176.175C1473.6 174.311 1471.81 172.8 1469.6 172.8C1467.39 172.8 1465.6 174.311 1465.6 176.175C1465.6 178.039 1467.39 179.55 1469.6 179.55Z" fill="#4F3B78"/>
<path d="M1592 261.225C1594.21 261.225 1596 259.714 1596 257.85C1596 255.986 1594.21 254.475 1592 254.475C1589.79 254.475 1588 255.986 1588 257.85C1588 259.714 1589.79 261.225 1592 261.225Z" fill="#4F3B78"/>
</g>
<g clip-path="url(#clip4)">
<path d="M640 540H0V1080H640V540Z" fill="#C4BBF0"/>
<path d="M741.6 1134L584.8 1037.48L416 985.5L247.2 903.15L32 944.325L236 1055.7L101.2 1133.66L32 944.325L-157.6 872.775L81.6 797.85L-24.8 694.575L101.2 593.663L-55.2 497.475M615.2 694.575L829.6 716.108L615.2 694.575Z" stroke="#927FBF" stroke-width="0.5"/>
<path d="M296 1150.87L236 1055.7M-24.8 694.575L189.6 716.175L312 797.85L482.4 872.775L246.8 902.812L81.2 797.513L-24.8 694.575Z" stroke="#927FBF" stroke-width="0.5"/>
<path d="M416 985.5L462.4 1108.35L584.8 1037.48L672 944.325L482.4 872.775L416 985.5ZM416 985.5L236 1055.7L247.2 903.15L312 797.85L431.2 721.575L615.2 694.575L462 568.012L296 610.875L236 515.7L101.2 593.662L189.6 716.175L81.6 797.85L32 944.325L-55.2 1037.48L101.6 1134" stroke="#927FBF" stroke-width="0.5"/>
<path d="M312 797.85H81.6M416 445.5L462.8 568.688L584.8 497.475L416 445.5ZM482.4 872.775L431.2 721.575L189.6 716.175L296 610.875L482.4 872.775ZM721.6 797.85L431.2 721.575L721.6 797.85Z" stroke="#927FBF" stroke-width="0.5"/>
<path d="M81.6001 797.85L-208.8 721.575M-177.6 568.35L101.2 593.662L296 610.875L431.2 721.575L462 568.012L741.6 594L615.2 694.575L721.6 797.85L482.4 872.775L584.8 1037.47L-177.6 568.35ZM236 515.7L462 568.012L236 515.7ZM462.4 1108.35L236 1055.7L462.4 1108.35ZM32.0001 404.325L101.6 594L32.0001 404.325Z" stroke="#927FBF" stroke-width="0.5"/>
<path d="M615.2 697.95C617.409 697.95 619.2 696.439 619.2 694.575C619.2 692.711 617.409 691.2 615.2 691.2C612.991 691.2 611.2 692.711 611.2 694.575C611.2 696.439 612.991 697.95 615.2 697.95Z" fill="#4F3B78"/>
<path d="M431.2 724.95C433.409 724.95 435.2 723.439 435.2 721.575C435.2 719.711 433.409 718.2 431.2 718.2C428.991 718.2 427.2 719.711 427.2 721.575C427.2 723.439 428.991 724.95 431.2 724.95Z" fill="#4F3B78"/>
<path d="M482.4 876.15C484.609 876.15 486.4 874.639 486.4 872.775C486.4 870.911 484.609 869.4 482.4 869.4C480.191 869.4 478.4 870.911 478.4 872.775C478.4 874.639 480.191 876.15 482.4 876.15Z" fill="#4F3B78"/>
<path d="M584.8 1040.85C587.009 1040.85 588.8 1039.34 588.8 1037.47C588.8 1035.61 587.009 1034.1 584.8 1034.1C582.591 1034.1 580.8 1035.61 580.8 1037.47C580.8 1039.34 582.591 1040.85 584.8 1040.85Z" fill="#4F3B78"/>
<path d="M416 988.875C418.209 988.875 420 987.364 420 985.5C420 983.636 418.209 982.125 416 982.125C413.791 982.125 412 983.636 412 985.5C412 987.364 413.791 988.875 416 988.875Z" fill="#4F3B78"/>
<path d="M247.2 906.525C249.409 906.525 251.2 905.014 251.2 903.15C251.2 901.286 249.409 899.775 247.2 899.775C244.991 899.775 243.2 901.286 243.2 903.15C243.2 905.014 244.991 906.525 247.2 906.525Z" fill="#4F3B78"/>
<path d="M236 1059.07C238.209 1059.07 240 1057.56 240 1055.7C240 1053.84 238.209 1052.33 236 1052.33C233.791 1052.33 232 1053.84 232 1055.7C232 1057.56 233.791 1059.07 236 1059.07Z" fill="#4F3B78"/>
<path d="M32 947.7C34.2091 947.7 36 946.189 36 944.325C36 942.461 34.2091 940.95 32 940.95C29.7909 940.95 28 942.461 28 944.325C28 946.189 29.7909 947.7 32 947.7Z" fill="#4F3B78"/>
<path d="M81.6 801.225C83.8091 801.225 85.6 799.714 85.6 797.85C85.6 795.986 83.8091 794.475 81.6 794.475C79.3909 794.475 77.6 795.986 77.6 797.85C77.6 799.714 79.3909 801.225 81.6 801.225Z" fill="#4F3B78"/>
<path d="M101.6 597.375C103.809 597.375 105.6 595.864 105.6 594C105.6 592.136 103.809 590.625 101.6 590.625C99.3909 590.625 97.6 592.136 97.6 594C97.6 595.864 99.3909 597.375 101.6 597.375Z" fill="#4F3B78"/>
<path d="M296 614.25C298.209 614.25 300 612.739 300 610.875C300 609.011 298.209 607.5 296 607.5C293.791 607.5 292 609.011 292 610.875C292 612.739 293.791 614.25 296 614.25Z" fill="#4F3B78"/>
<path d="M462.4 571.725C464.609 571.725 466.4 570.214 466.4 568.35C466.4 566.486 464.609 564.975 462.4 564.975C460.191 564.975 458.4 566.486 458.4 568.35C458.4 570.214 460.191 571.725 462.4 571.725Z" fill="#4F3B78"/>
<path d="M189.6 719.55C191.809 719.55 193.6 718.039 193.6 716.175C193.6 714.311 191.809 712.8 189.6 712.8C187.391 712.8 185.6 714.311 185.6 716.175C185.6 718.039 187.391 719.55 189.6 719.55Z" fill="#4F3B78"/>
<path d="M312 801.225C314.209 801.225 316 799.714 316 797.85C316 795.986 314.209 794.475 312 794.475C309.791 794.475 308 795.986 308 797.85C308 799.714 309.791 801.225 312 801.225Z" fill="#4F3B78"/>
</g>
<g clip-path="url(#clip5)">
<path d="M1280 540H640V1080H1280V540Z" fill="#C4BBF0"/>
<path d="M1381.6 1134L1224.8 1037.48L1056 985.5L887.2 903.15L672 944.325L876 1055.7L741.2 1133.66L672 944.325L482.4 872.775L721.6 797.85L615.2 694.575L741.2 593.663L584.8 497.475M1255.2 694.575L1469.6 716.108L1255.2 694.575Z" stroke="#927FBF" stroke-width="0.5"/>
<path d="M936 1150.87L876 1055.7M615.2 694.575L829.6 716.175L952 797.85L1122.4 872.775L886.8 902.812L721.2 797.513L615.2 694.575Z" stroke="#927FBF" stroke-width="0.5"/>
<path d="M1056 985.5L1102.4 1108.35L1224.8 1037.48L1312 944.325L1122.4 872.775L1056 985.5ZM1056 985.5L876 1055.7L887.2 903.15L952 797.85L1071.2 721.575L1255.2 694.575L1102 568.012L936 610.875L876 515.7L741.2 593.662L829.6 716.175L721.6 797.85L672 944.325L584.8 1037.48L741.6 1134" stroke="#927FBF" stroke-width="0.5"/>
<path d="M952 797.85H721.6M1056 445.5L1102.8 568.688L1224.8 497.475L1056 445.5ZM1122.4 872.775L1071.2 721.575L829.6 716.175L936 610.875L1122.4 872.775ZM1361.6 797.85L1071.2 721.575L1361.6 797.85Z" stroke="#927FBF" stroke-width="0.5"/>
<path d="M721.6 797.85L431.2 721.575M462.4 568.35L741.2 593.662L936 610.875L1071.2 721.575L1102 568.012L1381.6 594L1255.2 694.575L1361.6 797.85L1122.4 872.775L1224.8 1037.47L462.4 568.35ZM876 515.7L1102 568.012L876 515.7ZM1102.4 1108.35L876 1055.7L1102.4 1108.35ZM672 404.325L741.6 594L672 404.325Z" stroke="#927FBF" stroke-width="0.5"/>
<path d="M1255.2 697.95C1257.41 697.95 1259.2 696.439 1259.2 694.575C1259.2 692.711 1257.41 691.2 1255.2 691.2C1252.99 691.2 1251.2 692.711 1251.2 694.575C1251.2 696.439 1252.99 697.95 1255.2 697.95Z" fill="#4F3B78"/>
<path d="M1071.2 724.95C1073.41 724.95 1075.2 723.439 1075.2 721.575C1075.2 719.711 1073.41 718.2 1071.2 718.2C1068.99 718.2 1067.2 719.711 1067.2 721.575C1067.2 723.439 1068.99 724.95 1071.2 724.95Z" fill="#4F3B78"/>
<path d="M1122.4 876.15C1124.61 876.15 1126.4 874.639 1126.4 872.775C1126.4 870.911 1124.61 869.4 1122.4 869.4C1120.19 869.4 1118.4 870.911 1118.4 872.775C1118.4 874.639 1120.19 876.15 1122.4 876.15Z" fill="#4F3B78"/>
<path d="M1224.8 1040.85C1227.01 1040.85 1228.8 1039.34 1228.8 1037.47C1228.8 1035.61 1227.01 1034.1 1224.8 1034.1C1222.59 1034.1 1220.8 1035.61 1220.8 1037.47C1220.8 1039.34 1222.59 1040.85 1224.8 1040.85Z" fill="#4F3B78"/>
<path d="M1056 988.875C1058.21 988.875 1060 987.364 1060 985.5C1060 983.636 1058.21 982.125 1056 982.125C1053.79 982.125 1052 983.636 1052 985.5C1052 987.364 1053.79 988.875 1056 988.875Z" fill="#4F3B78"/>
<path d="M887.2 906.525C889.409 906.525 891.2 905.014 891.2 903.15C891.2 901.286 889.409 899.775 887.2 899.775C884.991 899.775 883.2 901.286 883.2 903.15C883.2 905.014 884.991 906.525 887.2 906.525Z" fill="#4F3B78"/>
<path d="M876 1059.07C878.209 1059.07 880 1057.56 880 1055.7C880 1053.84 878.209 1052.33 876 1052.33C873.791 1052.33 872 1053.84 872 1055.7C872 1057.56 873.791 1059.07 876 1059.07Z" fill="#4F3B78"/>
<path d="M672 947.7C674.209 947.7 676 946.189 676 944.325C676 942.461 674.209 940.95 672 940.95C669.791 940.95 668 942.461 668 944.325C668 946.189 669.791 947.7 672 947.7Z" fill="#4F3B78"/>
<path d="M721.6 801.225C723.809 801.225 725.6 799.714 725.6 797.85C725.6 795.986 723.809 794.475 721.6 794.475C719.391 794.475 717.6 795.986 717.6 797.85C717.6 799.714 719.391 801.225 721.6 801.225Z" fill="#4F3B78"/>
<path d="M741.6 597.375C743.809 597.375 745.6 595.864 745.6 594C745.6 592.136 743.809 590.625 741.6 590.625C739.391 590.625 737.6 592.136 737.6 594C737.6 595.864 739.391 597.375 741.6 597.375Z" fill="#4F3B78"/>
<path d="M936 614.25C938.209 614.25 940 612.739 940 610.875C940 609.011 938.209 607.5 936 607.5C933.791 607.5 932 609.011 932 610.875C932 612.739 933.791 614.25 936 614.25Z" fill="#4F3B78"/>
<path d="M1102.4 571.725C1104.61 571.725 1106.4 570.214 1106.4 568.35C1106.4 566.486 1104.61 564.975 1102.4 564.975C1100.19 564.975 1098.4 566.486 1098.4 568.35C1098.4 570.214 1100.19 571.725 1102.4 571.725Z" fill="#4F3B78"/>
<path d="M829.6 719.55C831.809 719.55 833.6 718.039 833.6 716.175C833.6 714.311 831.809 712.8 829.6 712.8C827.391 712.8 825.6 714.311 825.6 716.175C825.6 718.039 827.391 719.55 829.6 719.55Z" fill="#4F3B78"/>
<path d="M952 801.225C954.209 801.225 956 799.714 956 797.85C956 795.986 954.209 794.475 952 794.475C949.791 794.475 948 795.986 948 797.85C948 799.714 949.791 801.225 952 801.225Z" fill="#4F3B78"/>
</g>
<defs>
<clipPath id="clip0">
<rect width="640" height="540" fill="white" transform="translate(1280 540)"/>
</clipPath>
<clipPath id="clip1">
<rect width="640" height="540" fill="white"/>
</clipPath>
<clipPath id="clip2">
<rect width="640" height="540" fill="white" transform="translate(640)"/>
</clipPath>
<clipPath id="clip3">
<rect width="640" height="540" fill="white" transform="translate(1280)"/>
</clipPath>
<clipPath id="clip4">
<rect width="640" height="540" fill="white" transform="translate(0 540)"/>
</clipPath>
<clipPath id="clip5">
<rect width="640" height="540" fill="white" transform="translate(640 540)"/>
</clipPath>
</defs>
</svg>
