<svg width="41" height="41" viewBox="0 0 41 41" fill="none" xmlns="http://www.w3.org/2000/svg">
<g clip-path="url(#clip0)">
<path d="M35.2352 0.520967L1.92273 19.7317C-0.83196 21.3253 -0.567702 25.4012 2.37917 26.6104L11.5321 30.3981V37.1567C11.5321 40.8723 16.2727 42.4018 18.4669 39.4469L21.9743 34.7143L30.935 38.4139C31.4075 38.6061 31.904 38.7022 32.4004 38.7022C33.0571 38.7022 33.7057 38.534 34.2903 38.2057C35.3153 37.6292 36.02 36.6042 36.2042 35.443L40.9608 4.43679C41.4493 1.22565 38.0059 -1.07259 35.2352 0.520967ZM15.3758 37.1567V31.9836L18.3067 33.1928L15.3758 37.1567ZM32.4004 34.8585L20.0844 29.7735L31.3114 13.5737C32.1682 12.3325 30.5506 10.8911 29.4135 11.876L12.477 26.6344L3.8446 23.0629L37.1571 3.84421L32.4004 34.8585Z" fill="white"/>
</g>
<defs>
<clipPath id="clip0">
<rect width="41" height="41" fill="white"/>
</clipPath>
</defs>
</svg>
