<svg width="42" height="42" viewBox="0 0 42 42" fill="none" xmlns="http://www.w3.org/2000/svg">
<path d="M39.375 3.9375H22.9688V2.625C22.9688 2.45095 22.8996 2.28403 22.7765 2.16096C22.6535 2.03789 22.4865 1.96875 22.3125 1.96875H19.6875C19.5135 1.96875 19.3465 2.03789 19.2235 2.16096C19.1004 2.28403 19.0312 2.45095 19.0312 2.625V3.9375H2.625C2.10307 3.93819 1.60271 4.14584 1.23365 4.5149C0.864589 4.88396 0.656945 5.38432 0.65625 5.90625V26.25C0.656945 26.7719 0.864589 27.2723 1.23365 27.6413C1.60271 28.0104 2.10307 28.2181 2.625 28.2188H9.68215L7.34836 38.7188H6.5625C6.38845 38.7188 6.22153 38.7879 6.09846 38.911C5.97539 39.034 5.90625 39.201 5.90625 39.375C5.90625 39.549 5.97539 39.716 6.09846 39.839C6.22153 39.9621 6.38845 40.0312 6.5625 40.0312H35.4375C35.6115 40.0312 35.7785 39.9621 35.9015 39.839C36.0246 39.716 36.0938 39.549 36.0938 39.375C36.0938 39.201 36.0246 39.034 35.9015 38.911C35.7785 38.7879 35.6115 38.7188 35.4375 38.7188H34.6516L32.3179 28.2188H39.375C39.8969 28.2181 40.3973 28.0104 40.7663 27.6413C41.1354 27.2723 41.3431 26.7719 41.3438 26.25V5.90625C41.3431 5.38432 41.1354 4.88396 40.7663 4.5149C40.3973 4.14584 39.8969 3.93819 39.375 3.9375ZM20.3438 3.28125H21.6562V3.9375H20.3438V3.28125ZM9.97336 38.7188H8.69285L11.0266 28.2188H12.3071L9.97336 38.7188ZM11.3179 38.7188L13.6516 28.2188H28.3484L30.6821 38.7188H11.3179ZM33.3071 38.7188H32.0266L29.6929 28.2188H30.9734L33.3071 38.7188ZM40.0312 26.25C40.031 26.424 39.9618 26.5908 39.8388 26.7138C39.7158 26.8368 39.549 26.906 39.375 26.9062H2.625C2.45103 26.906 2.28424 26.8368 2.16122 26.7138C2.03821 26.5908 1.96899 26.424 1.96875 26.25V5.90625C1.96899 5.73228 2.03821 5.56549 2.16122 5.44247C2.28424 5.31946 2.45103 5.25024 2.625 5.25H39.375C39.549 5.25024 39.7158 5.31946 39.8388 5.44247C39.9618 5.56549 40.031 5.73228 40.0312 5.90625V26.25Z" fill="white"/>
<path d="M38.0625 38.7188H37.4062C37.2322 38.7188 37.0653 38.7879 36.9422 38.911C36.8191 39.034 36.75 39.201 36.75 39.375C36.75 39.549 36.8191 39.716 36.9422 39.839C37.0653 39.9621 37.2322 40.0312 37.4062 40.0312H38.0625C38.2365 40.0312 38.4035 39.9621 38.5265 39.839C38.6496 39.716 38.7188 39.549 38.7188 39.375C38.7188 39.201 38.6496 39.034 38.5265 38.911C38.4035 38.7879 38.2365 38.7188 38.0625 38.7188Z" fill="white"/>
<path d="M26.25 5.90625H15.75C15.576 5.90625 15.409 5.97539 15.286 6.09846C15.1629 6.22153 15.0938 6.38845 15.0938 6.5625V15.75C15.0938 15.924 15.1629 16.091 15.286 16.214C15.409 16.3371 15.576 16.4062 15.75 16.4062H26.25C26.424 16.4062 26.591 16.3371 26.714 16.214C26.8371 16.091 26.9062 15.924 26.9062 15.75V6.5625C26.9062 6.38845 26.8371 6.22153 26.714 6.09846C26.591 5.97539 26.424 5.90625 26.25 5.90625ZM25.5938 15.0938H16.4062V7.21875H25.5938V15.0938Z" fill="white"/>
<path d="M13.7812 9.84375H3.28125C3.1072 9.84375 2.94028 9.91289 2.81721 10.036C2.69414 10.159 2.625 10.326 2.625 10.5V25.5938C2.625 25.7678 2.69414 25.9347 2.81721 26.0578C2.94028 26.1809 3.1072 26.25 3.28125 26.25H13.7812C13.9553 26.25 14.1222 26.1809 14.2453 26.0578C14.3684 25.9347 14.4375 25.7678 14.4375 25.5938V10.5C14.4375 10.326 14.3684 10.159 14.2453 10.036C14.1222 9.91289 13.9553 9.84375 13.7812 9.84375ZM13.125 24.9375H3.9375V11.1562H13.125V24.9375Z" fill="white"/>
<path d="M38.7188 5.90625H28.2188C28.0447 5.90625 27.8778 5.97539 27.7547 6.09846C27.6316 6.22153 27.5625 6.38845 27.5625 6.5625V12.4688C27.5625 12.6428 27.6316 12.8097 27.7547 12.9328C27.8778 13.0559 28.0447 13.125 28.2188 13.125H38.7188C38.8928 13.125 39.0597 13.0559 39.1828 12.9328C39.3059 12.8097 39.375 12.6428 39.375 12.4688V6.5625C39.375 6.38845 39.3059 6.22153 39.1828 6.09846C39.0597 5.97539 38.8928 5.90625 38.7188 5.90625ZM38.0625 11.8125H28.875V7.21875H38.0625V11.8125Z" fill="white"/>
<path d="M26.25 22.9688H15.75C15.576 22.9688 15.409 23.0379 15.286 23.161C15.1629 23.284 15.0938 23.451 15.0938 23.625V25.5938C15.0938 25.7678 15.1629 25.9347 15.286 26.0578C15.409 26.1809 15.576 26.25 15.75 26.25H26.25C26.424 26.25 26.591 26.1809 26.714 26.0578C26.8371 25.9347 26.9062 25.7678 26.9062 25.5938V23.625C26.9062 23.451 26.8371 23.284 26.714 23.161C26.591 23.0379 26.424 22.9688 26.25 22.9688ZM25.5938 24.9375H16.4062V24.2812H25.5938V24.9375Z" fill="white"/>
<path d="M28.2188 18.375H33.4688C33.6428 18.375 33.8097 18.3059 33.9328 18.1828C34.0559 18.0597 34.125 17.8928 34.125 17.7188V14.4375C34.125 14.2635 34.0559 14.0965 33.9328 13.9735C33.8097 13.8504 33.6428 13.7812 33.4688 13.7812H28.2188C28.0447 13.7812 27.8778 13.8504 27.7547 13.9735C27.6316 14.0965 27.5625 14.2635 27.5625 14.4375V17.7188C27.5625 17.8928 27.6316 18.0597 27.7547 18.1828C27.8778 18.3059 28.0447 18.375 28.2188 18.375ZM28.875 15.0938H32.8125V17.0625H28.875V15.0938Z" fill="white"/>
<path d="M3.28125 9.1875H5.82422C5.99827 9.1875 6.16519 9.11836 6.28826 8.99529C6.41133 8.87222 6.48047 8.7053 6.48047 8.53125V6.5625C6.48047 6.38845 6.41133 6.22153 6.28826 6.09846C6.16519 5.97539 5.99827 5.90625 5.82422 5.90625H3.28125C3.1072 5.90625 2.94028 5.97539 2.81721 6.09846C2.69414 6.22153 2.625 6.38845 2.625 6.5625V8.53125C2.625 8.7053 2.69414 8.87222 2.81721 8.99529C2.94028 9.11836 3.1072 9.1875 3.28125 9.1875ZM3.9375 7.21875H5.16797V7.875H3.9375V7.21875Z" fill="white"/>
<path d="M13.7812 5.90625H7.875C7.70095 5.90625 7.53403 5.97539 7.41096 6.09846C7.28789 6.22153 7.21875 6.38845 7.21875 6.5625C7.21875 6.73655 7.28789 6.90347 7.41096 7.02654C7.53403 7.14961 7.70095 7.21875 7.875 7.21875H13.7812C13.9553 7.21875 14.1222 7.14961 14.2453 7.02654C14.3684 6.90347 14.4375 6.73655 14.4375 6.5625C14.4375 6.38845 14.3684 6.22153 14.2453 6.09846C14.1222 5.97539 13.9553 5.90625 13.7812 5.90625Z" fill="white"/>
<path d="M9.84375 9.1875C10.0178 9.1875 10.1847 9.11836 10.3078 8.99529C10.4309 8.87222 10.5 8.7053 10.5 8.53125C10.5 8.3572 10.4309 8.19028 10.3078 8.06721C10.1847 7.94414 10.0178 7.875 9.84375 7.875H7.875C7.70095 7.875 7.53403 7.94414 7.41096 8.06721C7.28789 8.19028 7.21875 8.3572 7.21875 8.53125C7.21875 8.7053 7.28789 8.87222 7.41096 8.99529C7.53403 9.11836 7.70095 9.1875 7.875 9.1875H9.84375Z" fill="white"/>
<path d="M12.4688 9.1875C12.6428 9.1875 12.8097 9.11836 12.9328 8.99529C13.0559 8.87222 13.125 8.7053 13.125 8.53125C13.125 8.3572 13.0559 8.19028 12.9328 8.06721C12.8097 7.94414 12.6428 7.875 12.4688 7.875H11.8125C11.6385 7.875 11.4715 7.94414 11.3485 8.06721C11.2254 8.19028 11.1562 8.3572 11.1562 8.53125C11.1562 8.7053 11.2254 8.87222 11.3485 8.99529C11.4715 9.11836 11.6385 9.1875 11.8125 9.1875H12.4688Z" fill="white"/>
<path d="M26.25 17.0625H15.75C15.576 17.0625 15.409 17.1316 15.286 17.2547C15.1629 17.3778 15.0938 17.5447 15.0938 17.7188C15.0938 17.8928 15.1629 18.0597 15.286 18.1828C15.409 18.3059 15.576 18.375 15.75 18.375H26.25C26.424 18.375 26.591 18.3059 26.714 18.1828C26.8371 18.0597 26.9062 17.8928 26.9062 17.7188C26.9062 17.5447 26.8371 17.3778 26.714 17.2547C26.591 17.1316 26.424 17.0625 26.25 17.0625Z" fill="white"/>
<path d="M26.25 19.0312H15.75C15.576 19.0312 15.409 19.1004 15.286 19.2235C15.1629 19.3465 15.0938 19.5135 15.0938 19.6875C15.0938 19.8615 15.1629 20.0285 15.286 20.1515C15.409 20.2746 15.576 20.3438 15.75 20.3438H26.25C26.424 20.3438 26.591 20.2746 26.714 20.1515C26.8371 20.0285 26.9062 19.8615 26.9062 19.6875C26.9062 19.5135 26.8371 19.3465 26.714 19.2235C26.591 19.1004 26.424 19.0312 26.25 19.0312Z" fill="white"/>
<path d="M15.75 22.3125H23.625C23.799 22.3125 23.966 22.2434 24.089 22.1203C24.2121 21.9972 24.2812 21.8303 24.2812 21.6562C24.2812 21.4822 24.2121 21.3153 24.089 21.1922C23.966 21.0691 23.799 21 23.625 21H15.75C15.576 21 15.409 21.0691 15.286 21.1922C15.1629 21.3153 15.0938 21.4822 15.0938 21.6562C15.0938 21.8303 15.1629 21.9972 15.286 22.1203C15.409 22.2434 15.576 22.3125 15.75 22.3125Z" fill="white"/>
<path d="M26.25 21H25.5938C25.4197 21 25.2528 21.0691 25.1297 21.1922C25.0066 21.3153 24.9375 21.4822 24.9375 21.6562C24.9375 21.8303 25.0066 21.9972 25.1297 22.1203C25.2528 22.2434 25.4197 22.3125 25.5938 22.3125H26.25C26.424 22.3125 26.591 22.2434 26.714 22.1203C26.8371 21.9972 26.9062 21.8303 26.9062 21.6562C26.9062 21.4822 26.8371 21.3153 26.714 21.1922C26.591 21.0691 26.424 21 26.25 21Z" fill="white"/>
<path d="M38.7188 19.0312H28.2188C28.0447 19.0312 27.8778 19.1004 27.7547 19.2235C27.6316 19.3465 27.5625 19.5135 27.5625 19.6875C27.5625 19.8615 27.6316 20.0285 27.7547 20.1515C27.8778 20.2746 28.0447 20.3438 28.2188 20.3438H38.7188C38.8928 20.3438 39.0597 20.2746 39.1828 20.1515C39.3059 20.0285 39.375 19.8615 39.375 19.6875C39.375 19.5135 39.3059 19.3465 39.1828 19.2235C39.0597 19.1004 38.8928 19.0312 38.7188 19.0312Z" fill="white"/>
<path d="M38.7188 22.9688H28.2188C28.0447 22.9688 27.8778 23.0379 27.7547 23.161C27.6316 23.284 27.5625 23.451 27.5625 23.625C27.5625 23.799 27.6316 23.966 27.7547 24.089C27.8778 24.2121 28.0447 24.2812 28.2188 24.2812H38.7188C38.8928 24.2812 39.0597 24.2121 39.1828 24.089C39.3059 23.966 39.375 23.799 39.375 23.625C39.375 23.451 39.3059 23.284 39.1828 23.161C39.0597 23.0379 38.8928 22.9688 38.7188 22.9688Z" fill="white"/>
<path d="M28.2188 22.3125H36.0938C36.2678 22.3125 36.4347 22.2434 36.5578 22.1203C36.6809 21.9972 36.75 21.8303 36.75 21.6562C36.75 21.4822 36.6809 21.3153 36.5578 21.1922C36.4347 21.0691 36.2678 21 36.0938 21H28.2188C28.0447 21 27.8778 21.0691 27.7547 21.1922C27.6316 21.3153 27.5625 21.4822 27.5625 21.6562C27.5625 21.8303 27.6316 21.9972 27.7547 22.1203C27.8778 22.2434 28.0447 22.3125 28.2188 22.3125Z" fill="white"/>
<path d="M38.7188 21H38.0625C37.8885 21 37.7215 21.0691 37.5985 21.1922C37.4754 21.3153 37.4062 21.4822 37.4062 21.6562C37.4062 21.8303 37.4754 21.9972 37.5985 22.1203C37.7215 22.2434 37.8885 22.3125 38.0625 22.3125H38.7188C38.8928 22.3125 39.0597 22.2434 39.1828 22.1203C39.3059 21.9972 39.375 21.8303 39.375 21.6562C39.375 21.4822 39.3059 21.3153 39.1828 21.1922C39.0597 21.0691 38.8928 21 38.7188 21Z" fill="white"/>
<path d="M36.0938 24.9375H28.2188C28.0447 24.9375 27.8778 25.0066 27.7547 25.1297C27.6316 25.2528 27.5625 25.4197 27.5625 25.5938C27.5625 25.7678 27.6316 25.9347 27.7547 26.0578C27.8778 26.1809 28.0447 26.25 28.2188 26.25H36.0938C36.2678 26.25 36.4347 26.1809 36.5578 26.0578C36.6809 25.9347 36.75 25.7678 36.75 25.5938C36.75 25.4197 36.6809 25.2528 36.5578 25.1297C36.4347 25.0066 36.2678 24.9375 36.0938 24.9375Z" fill="white"/>
<path d="M38.7188 24.9375H38.0625C37.8885 24.9375 37.7215 25.0066 37.5985 25.1297C37.4754 25.2528 37.4062 25.4197 37.4062 25.5938C37.4062 25.7678 37.4754 25.9347 37.5985 26.0578C37.7215 26.1809 37.8885 26.25 38.0625 26.25H38.7188C38.8928 26.25 39.0597 26.1809 39.1828 26.0578C39.3059 25.9347 39.375 25.7678 39.375 25.5938C39.375 25.4197 39.3059 25.2528 39.1828 25.1297C39.0597 25.0066 38.8928 24.9375 38.7188 24.9375Z" fill="white"/>
<path d="M38.7188 13.7812H35.4375C35.2635 13.7812 35.0965 13.8504 34.9735 13.9735C34.8504 14.0965 34.7812 14.2635 34.7812 14.4375V17.7188C34.7812 17.8928 34.8504 18.0597 34.9735 18.1828C35.0965 18.3059 35.2635 18.375 35.4375 18.375H38.7188C38.8928 18.375 39.0597 18.3059 39.1828 18.1828C39.3059 18.0597 39.375 17.8928 39.375 17.7188V14.4375C39.375 14.2635 39.3059 14.0965 39.1828 13.9735C39.0597 13.8504 38.8928 13.7812 38.7188 13.7812ZM38.0625 17.0625H36.0938V15.0938H38.0625V17.0625Z" fill="white"/>
</svg>
